HIERARCHY
ROOT ui
{
	 OFFSET 0 0 0
	 CHANNELS 3 XPosition YPosition Z Position
	 EndSite
	 {
	 OFFSET 0 -1 0
	 }
}
ROOT li
{
	 OFFSET 0 0 0
	 CHANNELS 3 XPosition YPosition Z Position
	 EndSite
	 {
	 OFFSET 0 -1 0
	 }
}
ROOT ul
{
	 OFFSET 0 0 0
	 CHANNELS 3 XPosition YPosition Z Position
	 EndSite
	 {
	 OFFSET 0 -1 0
	 }
}
ROOT ll
{
	 OFFSET 0 0 0
	 CHANNELS 3 XPosition YPosition Z Position
	 EndSite
	 {
	 OFFSET 0 -1 0
	 }
}
ROOT tt
{
	 OFFSET 0 0 0
	 CHANNELS 3 XPosition YPosition Z Position
	 EndSite
	 {
	 OFFSET 0 -1 0
	 }
}
ROOT tb
{
	 OFFSET 0 0 0
	 CHANNELS 3 XPosition YPosition Z Position
	 EndSite
	 {
	 OFFSET 0 -1 0
	 }
}
ROOT td
{
	 OFFSET 0 0 0
	 CHANNELS 3 XPosition YPosition Z Position
	 EndSite
	 {
	 OFFSET 0 -1 0
	 }
}
ROOT v
{
	 OFFSET 0 0 0
	 CHANNELS 3 XPosition YPosition Z Position
	 EndSite
	 {
	 OFFSET 0 -1 0
	 }
}
ROOT bn
{
	 OFFSET 0 0 0
	 CHANNELS 3 XPosition YPosition Z Position
	 EndSite
	 {
	 OFFSET 0 -1 0
	 }
}
MOTION
Frames: 16
Frame Time: 0.002
-0.010885588645935059	2.877129912376404E-4	0		0.42293377685546873	-2.47888037109375	0		-0.9828978271484375	0.11038845825195312	0		-0.8548992919921875	-2.56192626953125	0		1.445965087890625	-0.8773836669921875	0		3.230651611328125	-0.2780582275390625	0		4.67237451171875	-0.20754653930664063	0		5.55044287109375	0.11625082397460937	0		-0.29111825561523436	5.85416650390625	0		
-0.019295633316040037	-0.00910587215423584	0		0.47845562744140624	-2.486889892578125	0		-0.9902008666992187	0.11201795959472656	0		-0.819360595703125	-2.567704833984375	0		1.4396473388671875	-0.8738460083007813	0		3.221382568359375	-0.27155303955078125	0		4.6799755859375	-0.21524928283691405	0		5.5631298828125	0.11647099304199218	0		-0.30332025146484376	5.84581982421875	0		
-0.016765007019042967	-0.008615484237670898	0		0.4149930419921875	-2.474797607421875	0		-0.9936179809570312	0.11760385894775391	0		-0.827857177734375	-2.55907861328125	0		1.4571895751953126	-0.86855615234375	0		3.210874755859375	-0.274070556640625	0		4.67757373046875	-0.20690155029296875	0		5.5507607421875	0.12687734985351562	0		-0.28645986938476564	5.85618896484375	0		
-0.014403993606567383	-0.008145516395568847	0		0.4462405700683594	-2.4746220703125	0		-0.9793464965820312	0.10800497436523437	0		-0.8615916137695312	-2.556230712890625	0		1.42941796875	-0.8778684692382812	0		3.206205078125	-0.2756809692382812	0		4.67385009765625	-0.214587890625	0		5.55803271484375	0.11704713439941407	0		-0.28284161376953126	5.855662109375	0		
0.00383044695854187	-0.0018545010089874268	0		0.4073182678222656	-2.471810546875	0		-1.0491214599609375	0.1131818618774414	0		-0.8356447143554687	-2.566973388671875	0		1.4376197509765625	-0.8705531616210938	0		3.253386962890625	-0.2738243408203125	0		4.67214208984375	-0.20133708190917968	0		5.55429345703125	0.12527375793457032	0		-0.2642808532714844	5.8659658203125	0		
0.005814724922180175	-0.0014420919418334961	0		0.4562218627929687	-2.466869140625	0		-0.971134765625	0.11292024230957032	0		-0.8047260131835937	-2.559796142578125	0		1.4395594482421874	-0.8702141723632812	0		3.22040673828125	-0.2682432556152344	0		4.6930478515625	-0.20834527587890625	0		5.56628369140625	0.12530628967285157	0		-0.14486749267578125	5.87927099609375	0		
-0.05742095184326172	-0.0024374179840087893	0		0.4268570556640625	-2.468215087890625	0		-0.9752998046875	0.11840699005126953	0		-0.8200577392578124	-2.5572119140625	0		1.473293701171875	-0.8702178344726562	0		3.206183837890625	-0.26687686157226564	0		4.68583740234375	-0.20612252807617187	0		5.55399462890625	0.11753247833251954	0		-0.3110445556640625	5.8532763671875	0		
0.002098026990890503	-0.007653010845184326	0		0.4532518005371094	-2.473135986328125	0		-0.9777620849609375	0.11483836364746093	0		-0.854596923828125	-2.55447900390625	0		1.445859619140625	-0.865669677734375	0		3.213662841796875	-0.2747554016113281	0		4.6873974609375	-0.20601882934570312	0		5.5655703125	0.11749508666992188	0		-0.2751289367675781	5.8583056640625	0		
-0.05357004547119141	-0.009793515205383302	0		0.43643194580078126	-2.478677978515625	0		-0.9704465942382813	0.11013298034667969	0		-0.8064627685546875	-2.564589111328125	0		1.45905859375	-0.8775518188476562	0		3.23100732421875	-0.27476361083984374	0		4.686736328125	-0.2069240264892578	0		5.5610126953125	0.1255853805541992	0		-0.2583769226074219	5.8694775390625	0		
0.003687314987182617	9.279029965400696E-4	0		0.4685002746582031	-2.47573388671875	0		-0.965249755859375	0.11440463256835938	0		-0.8383659057617188	-2.55796337890625	0		1.445250732421875	-0.8692048950195312	0		3.23214794921875	-0.2746432800292969	0		4.6929580078125	-0.19891900634765625	0		5.5721708984375	0.12550223541259767	0		-0.24185086059570313	5.88060888671875	0		
-0.045311973571777346	0.005648437976837158	0		0.46936004638671874	-2.475522705078125	0		-0.97023681640625	0.11973209381103515	0		-0.7665816040039063	-2.565396240234375	0		1.4661640625	-0.8702289428710938	0		3.2170966796875	-0.27438568115234374	0		4.69390869140625	-0.19887699890136717	0		5.57313525390625	0.12550899505615234	0		-0.12154407501220703	5.89168017578125	0		
0.005429065227508545	0.0013525060415267944	0		0.4591097106933594	-2.4702353515625	0		-0.9694501342773437	0.1199593276977539	0		-0.8507722778320312	-2.553339111328125	0		1.4648782958984374	-0.8740632934570313	0		3.253917724609375	-0.26965328979492187	0		4.696537109375	-0.21385816955566406	0		5.56984326171875	0.11755716705322265	0		-0.12056436920166015	5.89187890625	0		
-0.00201112699508667	-0.005407855987548828	0		0.4576538391113281	-2.472067138671875	0		-0.9728577880859375	0.11618486022949219	0		-0.7792832641601563	-2.560857177734375	0		1.450573486328125	-0.8647935791015625	0		3.21257080078125	-0.26616351318359377	0		4.69038720703125	-0.1907527770996094	0		5.56455419921875	0.1256305389404297	0		-0.2691099853515625	5.859515625	0		
0.003447810888290405	-0.009330003738403321	0		0.44004718017578126	-2.4777705078125	0		-0.9623670654296875	0.1152315673828125	0		-0.8398400268554688	-2.561111572265625	0		1.4659661865234375	-0.873842041015625	0		3.234984375	-0.27431478881835936	0		4.69765478515625	-0.21378303527832032	0		5.5650556640625	0.1256517791748047	0		-0.28645919799804687	5.86382568359375	0		
0.014940060615539551	6.561269760131836E-4	0		0.4444605712890625	-2.472719970703125	0		-0.9619718627929688	0.1153387680053711	0		-0.7984591674804687	-2.559412109375	0		1.44839990234375	-0.8685859985351563	0		3.24840380859375	-0.2713869934082031	0		4.6941748046875	-0.20070494079589843	0		5.56545068359375	0.12568046569824218	0		-0.2368486328125	5.8784384765625	0		
0.01029202938079834	0.004772539138793945	0		0.4398892211914063	-2.459606201171875	0		-0.9566198120117188	0.11936101531982422	0		-0.83311865234375	-2.554994384765625	0		1.4686966552734375	-0.8697243041992188	0		3.235685546875	-0.27420730590820314	0		4.69158544921875	-0.19063230895996094	0		5.565763671875	0.12571945190429687	0		-0.11836396789550781	5.8923369140625	0		
